<svg xmlns="http://www.w3.org/2000/svg" viewBox="0 0 200 200"><defs><style>.cls-1{opacity:0.25;}.cls-2{fill:#ffa227;}</style></defs><title>access_1</title><g id="Security" class="cls-1"><g id="Pin_-_1" data-name="Pin - 1"><path class="cls-2" d="M156.71,27.8l-.42-.41a79.44,79.44,0,0,0-112.59,0l-.43.43a80.14,80.14,0,0,0,0,112.94L100,196l56.72-55.24A80.15,80.15,0,0,0,156.71,27.8Zm-5.66,107.31L100,184.66,48.94,135.11a72.13,72.13,0,0,1,0-101.64l.43-.43a71.45,71.45,0,0,1,101.28,0l.42.42A72.13,72.13,0,0,1,151.06,135.11Z"/><path class="cls-2" d="M100,56a24,24,0,1,0,24,24A24,24,0,0,0,100,56Zm0,40a16,16,0,1,1,16-16A16,16,0,0,1,100,96Z"/></g></g></svg>