<svg xmlns="http://www.w3.org/2000/svg" viewBox="0 0 200 200"><defs><style>.cls-1{opacity:0.25;}.cls-2{fill:#ffa227;}</style></defs><title>access_2</title><g id="Security" class="cls-1"><g id="Space_Shuttle" data-name="Space Shuttle"><path class="cls-2" d="M153.95,109c-1-1.22-2.06-2.53-3.22-3.92C142.4,95,131,81.35,131,61.6V50.88C131,28.2,115.42,4.54,99.86,4,84.57,4.54,69,28.2,69,50.88V61.6c0,18.72-11.8,32.15-20.41,41.95-1.72,2-3.29,3.75-4.62,5.4-5.86,7.31-6,23.78-6,25.63v3.83h38.6l7.75,11.52h31.27l7.75-11.52h38.53l.08-3.76C162,134,162.22,119.34,153.95,109Zm-34.71,21.77-7.75,11.52h-23l-7.75-11.52H45.87c.37-6,1.61-13.81,4.16-17,1.26-1.57,2.76-3.28,4.4-5.14,8.89-10.11,22.32-25.4,22.32-47V50.88c0-20.81,14.36-38.88,23.11-39.21,9,.32,23.39,18.4,23.39,39.21V61.6c0,22.52,12.94,38,21.5,48.33,1.12,1.34,2.17,2.6,3.11,3.79,4.3,5.4,5.71,12.65,6.17,17Z"/><path class="cls-2" d="M100,157.6c-9.71,0-15.5,4.46-15.5,11.92,0,7.66,10.37,20.38,12.45,22.85l3,3.63,3-3.63c2.08-2.47,12.45-15.19,12.45-22.85C115.5,162.06,109.71,157.6,100,157.6ZM100,184c-3.85-5.17-7.75-11.52-7.75-14.52,0-1.4,0-4.69,7.75-4.69s7.75,3.29,7.75,4.69C107.75,172.52,103.85,178.87,100,184Z"/></g></g></svg>