<svg id="Layer_1" data-name="Layer 1" xmlns="http://www.w3.org/2000/svg" viewBox="0 0 270 55"><defs><style>.cls-1{fill:none;}.cls-2{fill:#faa227;}</style></defs><title>Artboard 1</title><rect class="cls-1" width="270" height="55"/><polygon class="cls-2" points="135 0 141.09 10.97 153.4 13.37 144.85 22.55 146.37 35 135 29.7 123.63 35 125.15 22.55 116.6 13.37 128.91 10.97 135 0"/><polygon class="cls-2" points="173.69 15 178.03 22.84 186.83 24.55 180.72 31.11 181.81 40 173.69 36.22 165.56 40 166.65 31.11 160.54 24.55 169.34 22.84 173.69 15"/><polygon class="cls-2" points="96.31 15 100.66 22.84 109.46 24.55 103.35 31.11 104.44 40 96.31 36.22 88.19 40 89.28 31.11 83.17 24.55 91.97 22.84 96.31 15"/><polygon class="cls-2" points="204.49 25 207.96 31.27 215 32.64 210.11 37.88 210.98 45 204.49 41.97 197.99 45 198.86 37.88 193.97 32.64 201.01 31.27 204.49 25"/><polygon class="cls-2" points="65.52 25 68.99 31.27 76.03 32.64 71.14 37.88 72.01 45 65.52 41.97 59.02 45 59.89 37.88 55 32.64 62.04 31.27 65.52 25"/></svg>