<?xml version="1.0" encoding="utf-8"?>
<!-- Generator: Adobe Illustrator 21.0.2, SVG Export Plug-In . SVG Version: 6.00 Build 0)  -->
<svg version="1.1" id="Layer_1" xmlns="http://www.w3.org/2000/svg" xmlns:xlink="http://www.w3.org/1999/xlink" x="0px" y="0px"
	 viewBox="0 0 1100 900" style="enable-background:new 0 0 1100 900;" xml:space="preserve">
<style type="text/css">
	.st0{fill:#FFFFFF;}
</style>
<g id="Logomark">
	<path class="st0" d="M900,250.1C900,250,900,250,900,250.1c0-71.9-58.2-130.1-130-130.1c-15,0-29.3,2.6-42.7,7.2
		C675.1,50.4,587.1,0,487.3,0C340.7,0,219.5,108.8,200,250.1C82.1,303.4,0,422.1,0,560c0,187.8,152.2,340,340,340h420
		c187.8,0,340-152.2,340-340C1100,422.1,1017.9,303.4,900,250.1z M768,869.9c-2.7,0-5.3,0.1-8,0.1s-5.3-0.1-8-0.1
		c-82.1-1.4-159.1-23.8-225.8-62.1c-89.1-51.2-159.9-130.8-199.9-226.4c42.9,10.9,90.3-0.5,123.9-34.1c0,0,0,0,0,0
		c-61.5-8.8-116.1-39.1-155.9-83c-20-22.1-36.2-47.6-47.7-75.6c-12.5-30.5-19.4-63.8-19.4-98.8c0-6.4,0.2-12.8,0.7-19.1
		c2.4-32.6,10.8-63.6,24.1-91.8c7,32.6,31.7,58.6,63.6,67.5c7.8,2.2,15.9,3.4,24.4,3.4h300c0-20.2,4.6-39.3,12.8-56.4
		c20.6,29.9,53.4,50.8,91.2,55.4c5.2,0.6,10.6,1,16,1c48.8,0,95,11.3,136.1,31.4C999.1,331.9,1070,437.6,1070,560
		C1070,728.5,935.5,865.7,768,869.9z M790,500v52v8h-30h-30v-8v-52c0-16.6,13.4-30,30-30S790,483.4,790,500z M1040,560
		c0,154.6-125.4,280-280,280S480,714.6,480,560s125.4-280,280-280S1040,405.4,1040,560z M840,580c0-11-9-20-20-20v-60
		c0-33.1-26.9-60-60-60s-60,26.9-60,60v60c-11,0-20,9-20,20v80c0,11,9,20,20,20h120c11,0,20-9,20-20V580z"/>
</g>
</svg>
