<?xml version="1.0" encoding="utf-8"?>
<!-- Generator: Adobe Illustrator 21.0.2, SVG Export Plug-In . SVG Version: 6.00 Build 0)  -->
<svg version="1.1" id="Layer_1" xmlns="http://www.w3.org/2000/svg" xmlns:xlink="http://www.w3.org/1999/xlink" x="0px" y="0px"
	 viewBox="0 0 115 36" style="enable-background:new 0 0 115 36;" xml:space="preserve">
<style type="text/css">
	.st0{fill:#FFA227;}
	.st1{fill:#FF9100;}
	.st2{fill:#F2F2F2;}
	.st3{fill:#545E65;}
	.st4{fill:#FFFFFF;}
</style>
<title>Artboard 1</title>
<g id="Full_Color_1_">
	<g id="Logotype_2_">
		<path class="st0" d="M67,35.9c-2.4,0-4.6-1.3-5.8-3.4C61,32.3,60.9,32,61,31.7c0.1-0.3,0.2-0.5,0.5-0.6C61.6,31,61.8,31,62,31
			c0.4,0,0.7,0.2,0.9,0.5c0.8,1.4,2.4,2.3,4,2.3c0,0,0,0,0,0c1.2,0,2.4-0.5,3.3-1.4s1.4-2.1,1.4-3.3v-1.8c-1.3,1.1-3,1.8-4.7,1.8
			c-3.7,0-6.8-3-6.8-6.8c0-3.7,3-6.8,6.8-6.8c1.7,0,3.3,0.6,4.6,1.8l0.1-0.7c0-0.6,0.5-1,1-1s1,0.5,1,1v12.5
			C73.7,32.9,70.7,35.9,67,35.9L67,35.9z M67,17.7c-2.6,0-4.7,2.1-4.7,4.7S64.4,27,67,27s4.7-2.1,4.7-4.7S69.5,17.7,67,17.7z
			 M98.2,29.1c-0.6,0-1-0.5-1-1V12c0-0.6,0.5-1,1-1s1,0.5,1,1v3.5l1.6,0c0.6,0,1,0.5,1,1s-0.5,1-1,1h-1.6l0,10.4
			C99.2,28.6,98.7,29.1,98.2,29.1z M92.3,29.1c-0.6,0-1-0.5-1-1V16.7c0-0.6,0.5-1,1-1s1,0.5,1,1v11.4C93.4,28.6,92.9,29.1,92.3,29.1
			z M86.5,29.1c-0.6,0-1-0.5-1-1v-7.4c0-1.6-1.3-3-3-3s-3,1.3-3,3v7.4c0,0.6-0.5,1-1,1s-1-0.5-1-1v-7.4c0-2.8,2.3-5.1,5.1-5.1
			c2.8,0,5,2.3,5,5.1v7.4C87.5,28.6,87.1,29.1,86.5,29.1z M56.1,29.1c-0.6,0-1-0.5-1-1V16.7c0-0.6,0.5-1,1-1s1,0.5,1,1v11.4
			C57.2,28.6,56.7,29.1,56.1,29.1z M109,29.1c-3.7,0-6.8-3-6.8-6.8c0-3.7,3-6.8,6.8-6.8c2.4,0,4.6,1.3,5.8,3.4
			c0.1,0.2,0.2,0.5,0.1,0.8c-0.1,0.3-0.2,0.5-0.5,0.6c0,0-0.1,0.1-0.1,0.1l-9.5,3.9c0.8,1.7,2.4,2.6,4.1,2.6c1.7,0,3.2-0.9,4-2.3
			c0.2-0.3,0.5-0.5,0.9-0.5c0.2,0,0.4,0,0.5,0.1c0.2,0.1,0.4,0.4,0.5,0.6c0.1,0.3,0,0.5-0.1,0.8C113.6,27.8,111.4,29.1,109,29.1
			L109,29.1z M109,17.7c-2.5,0-4.6,2.1-4.7,4.6l7.9-3.2C111.3,18.2,110.2,17.7,109,17.7L109,17.7z M92.3,13.8
			c-0.8,0-1.4-0.6-1.4-1.4s0.6-1.4,1.4-1.4c0.8,0,1.4,0.6,1.4,1.4S93.1,13.8,92.3,13.8z M56.1,13.8c-0.8,0-1.4-0.6-1.4-1.4
			s0.6-1.4,1.4-1.4s1.4,0.6,1.4,1.4S56.9,13.8,56.1,13.8z"/>
		<path class="st1" d="M98.2,11c0.5,0,1,0.4,1,1v3.5v0.1h0.1h1.6c0.5,0,1,0.4,1,1c0,0.5-0.4,1-1,1h-1.6h-0.1v0.1l0,10.3
			c0,0.5-0.4,1-1,1c-0.5,0-1-0.4-1-1l0-16C97.2,11.5,97.6,11,98.2,11 M92.3,11c0.7,0,1.4,0.6,1.4,1.4c0,0.7-0.6,1.4-1.4,1.4
			c-0.7,0-1.4-0.6-1.4-1.4C91,11.7,91.6,11,92.3,11 M56.1,11c0.7,0,1.4,0.6,1.4,1.4c0,0.7-0.6,1.4-1.4,1.4c-0.7,0-1.4-0.6-1.4-1.4
			C54.8,11.7,55.4,11,56.1,11 M92.3,15.7c0.3,0,0.5,0.1,0.7,0.3c0.2,0.2,0.3,0.4,0.3,0.7l0,11.4c0,0.5-0.4,1-1,1
			c-0.3,0-0.5-0.1-0.7-0.3c-0.2-0.2-0.3-0.4-0.3-0.7l0-11.4C91.3,16.1,91.8,15.7,92.3,15.7 M82.5,15.7c2.8,0,5,2.2,5,5v7.4
			c0,0.5-0.4,1-1,1s-1-0.4-1-1l0-7.4c0-1.7-1.4-3-3-3c-1.7,0-3,1.4-3,3v7.4c0,0.5-0.4,1-1,1c-0.5,0-1-0.4-1-1l0-7.4
			C77.5,17.9,79.7,15.7,82.5,15.7 M72.7,15.7c0.3,0,0.5,0.1,0.7,0.3c0.2,0.2,0.3,0.4,0.3,0.7v5.7l0,6.8c0,1.8-0.7,3.5-2,4.7
			c-1.3,1.3-2.9,2-4.7,2c-2.4,0-4.6-1.3-5.8-3.4c-0.3-0.5-0.1-1.1,0.4-1.4c0.2-0.1,0.3-0.1,0.5-0.1c0.4,0,0.7,0.2,0.9,0.5
			c0.8,1.5,2.4,2.4,4.1,2.4c2.6,0,4.7-2.1,4.7-4.7l0-1.8v-0.2l-0.2,0.2c-1.2,1.1-2.9,1.8-4.5,1.8c-3.7,0-6.7-3-6.7-6.7
			s3-6.7,6.7-6.7c1.7,0,3.3,0.6,4.5,1.8l0.2,0.2v-0.2v-0.7C71.7,16.1,72.1,15.7,72.7,15.7 M67,27.1c2.6,0,4.7-2.1,4.7-4.7
			c0-2.6-2.1-4.7-4.7-4.7c-2.6,0-4.7,2.1-4.7,4.7S64.4,27.1,67,27.1 M56.1,15.7c0.3,0,0.5,0.1,0.7,0.3c0.2,0.2,0.3,0.4,0.3,0.7
			l0,11.4c0,0.5-0.4,1-1,1s-1-0.4-1-1V16.7C55.2,16.1,55.6,15.7,56.1,15.7 M109,15.7L109,15.7c2.4,0,4.6,1.3,5.8,3.4
			c0.3,0.5,0.1,1.1-0.4,1.4c0,0-0.1,0-0.1,0.1l-9.5,3.9l-0.1,0l0,0.1c0.8,1.6,2.4,2.6,4.2,2.6c1.7,0,3.2-0.9,4.1-2.4
			c0.2-0.3,0.5-0.5,0.9-0.5c0.2,0,0.3,0,0.5,0.1c0.5,0.3,0.6,0.9,0.4,1.4c-1.2,2.1-3.4,3.3-5.8,3.4c-3.7,0-6.7-3-6.7-6.7
			S105.3,15.7,109,15.7 M104.2,22.4l0.1-0.1l7.8-3.2l0.1-0.1l-0.1-0.1c-0.9-0.9-2-1.3-3.3-1.3c-2.6,0-4.7,2.1-4.7,4.6L104.2,22.4
			 M98.2,10.9c-0.6,0-1.1,0.5-1.1,1.1c0,0,0,0,0,0l0,16c0,0,0,0,0,0c0,0.6,0.5,1.1,1.1,1.1c0.6,0,1.1-0.5,1.1-1.1h0V17.7h1.6
			c0.6,0,1.1-0.5,1.1-1.1c0-0.6-0.5-1.1-1.1-1.1h-1.6V12h0C99.3,11.4,98.8,10.9,98.2,10.9L98.2,10.9z M92.3,10.9
			c-0.8,0-1.5,0.7-1.5,1.5s0.7,1.5,1.5,1.5c0.8,0,1.5-0.7,1.5-1.5S93.1,10.9,92.3,10.9L92.3,10.9z M56.1,10.9
			c-0.8,0-1.5,0.7-1.5,1.5s0.7,1.5,1.5,1.5s1.5-0.7,1.5-1.5S56.9,10.9,56.1,10.9L56.1,10.9z M109,15.6c-3.8,0-6.8,3-6.8,6.8
			s3,6.8,6.8,6.8h0c2.3,0,4.6-1.2,5.9-3.4c0.3-0.5,0.1-1.2-0.4-1.5c-0.2-0.1-0.4-0.1-0.5-0.1c-0.4,0-0.7,0.2-0.9,0.5
			c-0.9,1.5-2.4,2.3-4,2.3v0c-1.8,0-3.4-1-4.1-2.5l9.5-3.9c0.1,0,0.1,0,0.2-0.1c0.5-0.3,0.7-1,0.4-1.5
			C113.6,16.8,111.3,15.6,109,15.6L109,15.6z M104.4,22.3c0-2.5,2.1-4.5,4.6-4.5v0c1.2,0,2.3,0.5,3.2,1.3L104.4,22.3L104.4,22.3z
			 M92.3,15.6c-0.6,0-1.1,0.5-1.1,1.1l0,11.4c0,0,0,0,0,0c0,0.6,0.5,1.1,1.1,1.1s1.1-0.5,1.1-1.1v0h0l0-11.4c0,0,0,0,0,0
			C93.4,16.1,92.9,15.6,92.3,15.6L92.3,15.6z M82.5,15.6c-2.8,0-5.1,2.3-5.1,5.1c0,0,0,0,0,0l0,7.4c0,0,0,0,0,0
			c0,0.6,0.5,1.1,1.1,1.1s1.1-0.5,1.1-1.1v-7.4c0-1.6,1.3-2.9,2.9-2.9s2.9,1.3,2.9,2.9l0,7.4c0,0,0,0,0,0c0,0.6,0.5,1.1,1.1,1.1
			c0.6,0,1.1-0.5,1.1-1.1h0l0-7.4C87.6,17.8,85.3,15.6,82.5,15.6L82.5,15.6z M72.7,15.6c-0.6,0-1.1,0.5-1.1,1.1v0.7
			c-1.2-1.1-2.8-1.8-4.6-1.8c-3.8,0-6.8,3-6.8,6.8c0,3.8,3,6.8,6.8,6.8c1.8,0,3.4-0.7,4.6-1.8l0,1.8h0c0,2.5-2.1,4.6-4.6,4.6v0
			c-1.6,0-3.1-0.8-4-2.3c-0.2-0.4-0.6-0.5-0.9-0.5c-0.2,0-0.4,0-0.5,0.1c-0.5,0.3-0.7,1-0.4,1.5c1.3,2.2,3.5,3.4,5.9,3.4v0
			c3.8,0,6.8-3,6.8-6.8l0-6.8c0,0,0,0,0,0c0,0,0,0,0,0v-5.7c0,0,0,0,0,0C73.8,16.1,73.3,15.6,72.7,15.6L72.7,15.6z M67,27
			c-2.5,0-4.6-2.1-4.6-4.6c0-2.5,2.1-4.6,4.6-4.6c2.5,0,4.6,2.1,4.6,4.6v0C71.6,24.9,69.5,27,67,27L67,27z M56.1,15.6
			c-0.6,0-1.1,0.5-1.1,1.1h0l0,11.4c0,0,0,0,0,0c0,0.6,0.5,1.1,1.1,1.1s1.1-0.5,1.1-1.1v0h0l0-11.4c0,0,0,0,0,0
			C57.2,16.1,56.7,15.6,56.1,15.6L56.1,15.6z"/>
	</g>
	<g id="Cloud_2_">
		<path class="st2" d="M13.6,36C6.1,36,0,29.9,0,22.4C0,17.1,3.2,12.2,8,10C8.8,4.3,13.8,0,19.5,0c3.8,0,7.4,1.9,9.6,5.1
			c0.6-0.2,1.2-0.3,1.7-0.3c2.8,0,5.2,2.3,5.2,5.2c4.9,2.2,8,7.1,8,12.4C44,29.9,37.9,36,30.4,36H13.6z"/>
		<path class="st3" d="M19.5,0.1c3.8,0,7.4,1.9,9.5,5l0,0.1l0.1,0c0.5-0.2,1.1-0.3,1.7-0.3c2.8,0,5.1,2.3,5.1,5.1v0.1l0.1,0
			c4.8,2.2,7.9,7,7.9,12.3c0,7.4-6.1,13.5-13.5,13.5H13.6c-7.4,0-13.5-6.1-13.5-13.5c0-5.3,3.1-10.1,7.9-12.3l0.1,0l0-0.1
			C8.9,4.4,13.8,0.1,19.5,0.1 M19.5,0C13.6,0,8.8,4.4,8,10c-4.7,2.1-8,6.9-8,12.4C0,29.9,6.1,36,13.6,36h16.8
			C37.9,36,44,29.9,44,22.4c0-5.5-3.3-10.3-8-12.4c0,0,0,0,0,0c0-2.9-2.3-5.2-5.2-5.2c-0.6,0-1.2,0.1-1.7,0.3C27,2,23.5,0,19.5,0
			L19.5,0z"/>
	</g>
	<g id="Ignite_3_">
		<path class="st0" d="M30.1,34.7c-3.2-0.1-6.3-0.9-9-2.5c-3.6-2-6.4-5.3-8-9c0.4,0.2,0.8,0.2,1.2,0.2c1.4,0,2.7-0.5,3.7-1.5
			c-2.4-0.4-4.6-1.6-6.2-3.4c-0.8-0.9-1.4-1.9-1.9-3c-0.5-1.2-0.8-2.6-0.8-3.9c0-0.3,0-0.5,0-0.8c0.1-1.3,0.4-2.5,1-3.7
			c0.2,1.3,1.2,2.4,2.5,2.7c0.3,0.1,0.7,0.1,1,0.1h12c0-0.8,0.2-1.6,0.6-2.3c0.8,1.2,2.1,2.1,3.6,2.2c0.2,0,0.4,0,0.6,0
			c1.9,0,3.7,0.4,5.4,1.3c4.3,2.1,6.9,6.3,6.9,11.1c0,6.8-5.3,12.2-12,12.3l-0.3,0L30.1,34.7z"/>
		<path class="st1" d="M10.1,7.5c0.4,1.2,1.3,2.2,2.5,2.5c0.3,0.1,0.7,0.1,1,0.1h12h0.1V10c0-0.7,0.1-1.4,0.4-2.1
			c0.9,1.2,2.2,1.9,3.6,2.1c0.2,0,0.4,0,0.7,0c1.9,0,3.7,0.4,5.4,1.2c4.3,2.1,6.9,6.3,6.9,11.1c0,3.2-1.2,6.3-3.5,8.6
			c-2.3,2.3-5.3,3.6-8.5,3.7l-0.1,0c-0.1,0-0.2,0-0.3,0c-0.1,0-0.2,0-0.3,0l-0.1,0c-3.2-0.1-6.3-0.9-9-2.5c-3.5-2-6.3-5.1-7.9-8.8
			c0.4,0.1,0.7,0.1,1.1,0.1c1.4,0,2.7-0.6,3.7-1.6l0.1-0.1l-0.2,0c-2.4-0.3-4.6-1.5-6.2-3.3c-0.8-0.9-1.4-1.9-1.9-3
			c-0.5-1.2-0.8-2.6-0.8-3.9c0-0.2,0-0.5,0-0.8C9.3,9.7,9.6,8.5,10.1,7.5 M10.1,7.2c-0.5,1.1-0.9,2.4-1,3.7c0,0.3,0,0.5,0,0.8
			c0,1.4,0.3,2.7,0.8,4c0.5,1.1,1.1,2.1,1.9,3c1.6,1.8,3.8,3,6.2,3.3c0,0,0,0,0,0c-1,1-2.3,1.5-3.7,1.5c-0.4,0-0.9-0.1-1.3-0.2
			c1.6,3.8,4.4,7,8,9.1c2.7,1.5,5.7,2.4,9,2.5c0.1,0,0.2,0,0.3,0c0.1,0,0.2,0,0.3,0c6.7-0.2,12.1-5.7,12.1-12.4
			c0-4.9-2.8-9.1-7-11.1c-1.6-0.8-3.5-1.3-5.4-1.3c-0.2,0-0.4,0-0.6,0c-1.5-0.2-2.8-1-3.6-2.2c-0.3,0.7-0.5,1.4-0.5,2.3h-12
			c-0.3,0-0.7,0-1-0.1C11.4,9.5,10.4,8.5,10.1,7.2L10.1,7.2z"/>
	</g>
	<g id="Switch_2_">
		<path class="st4" d="M30.4,33.6c-6.2,0-11.2-5-11.2-11.2c0-6.2,5-11.2,11.2-11.2s11.2,5,11.2,11.2C41.6,28.6,36.6,33.6,30.4,33.6z
			"/>
		<path class="st1" d="M30.4,11.2c6.2,0,11.2,5,11.2,11.2s-5,11.2-11.2,11.2s-11.2-5-11.2-11.2S24.2,11.2,30.4,11.2 M30.4,11.1
			c-6.2,0-11.3,5.1-11.3,11.3s5.1,11.3,11.3,11.3s11.3-5.1,11.3-11.3S36.6,11.1,30.4,11.1L30.4,11.1z"/>
	</g>
	<g id="Lock_2_">
		<path class="st0" d="M28,27.2c-0.4,0-0.8-0.3-0.8-0.8v-3.2c0-0.4,0.3-0.8,0.8-0.8l0-2.5c0-1.3,1.1-2.4,2.4-2.4s2.4,1.1,2.4,2.4
			v2.4c0.5,0,0.8,0.4,0.8,0.8v3.2c0,0.4-0.3,0.8-0.8,0.8H28z M30.4,18.8c-0.7,0-1.2,0.6-1.2,1.2v2.4l1.2,0h1.2l0-0.4V20
			C31.6,19.3,31.1,18.8,30.4,18.8z"/>
		<path class="st1" d="M30.4,17.7c1.3,0,2.3,1,2.3,2.3v2.4v0.1h0.1c0.4,0,0.7,0.3,0.7,0.7v3.2c0,0.4-0.3,0.7-0.7,0.7H28
			c-0.4,0-0.7-0.3-0.7-0.7v-3.2c0-0.4,0.3-0.7,0.7-0.7h0.1v-0.1V20C28.1,18.7,29.1,17.7,30.4,17.7 M29.1,22.5L29.1,22.5h1.3h1.2h0.1
			v-0.1v-0.3V20c0-0.7-0.6-1.3-1.3-1.3s-1.3,0.6-1.3,1.3v2.1v0.3V22.5 M30.4,17.6c-1.3,0-2.4,1.1-2.4,2.4v2.4
			c-0.4,0-0.8,0.4-0.8,0.8v3.2c0,0.4,0.4,0.8,0.8,0.8h4.8c0.4,0,0.8-0.4,0.8-0.8v-3.2c0-0.4-0.4-0.8-0.8-0.8V20
			C32.8,18.7,31.7,17.6,30.4,17.6L30.4,17.6z M29.2,22.4v-0.3V20c0-0.7,0.5-1.2,1.2-1.2s1.2,0.5,1.2,1.2v2.1v0.3h-1.2H29.2
			L29.2,22.4z"/>
	</g>
</g>
</svg>
