<svg id="Layer_1" data-name="Layer 1" xmlns="http://www.w3.org/2000/svg" viewBox="0 0 115 36"><defs><style>.cls-1{fill:#fff;}</style></defs><title>Artboard 1</title><g id="One_Color" data-name="One Color"><g id="Logotype"><path class="cls-1" d="M114.45,24.27a1.09,1.09,0,0,0-1.49.4A4.61,4.61,0,0,1,109,27h0a4.61,4.61,0,0,1-4.12-2.54l9.46-3.91.15-.07a1.09,1.09,0,0,0,.4-1.49,6.8,6.8,0,0,0-5.89-3.4h0a6.8,6.8,0,0,0,0,13.6h0a6.8,6.8,0,0,0,5.89-3.4A1.09,1.09,0,0,0,114.45,24.27ZM109,17.75h0a4.62,4.62,0,0,1,3.21,1.3l-7.82,3.23A4.61,4.61,0,0,1,109,17.75Zm-7-1.09a1.09,1.09,0,0,1-1.09,1.09H99.25V28.07h0a1.09,1.09,0,0,1-2.19,0h0V12h0a1.09,1.09,0,0,1,2.19,0h0v3.52h1.58A1.09,1.09,0,0,1,101.92,16.65Zm-8.5,11.41h0a1.09,1.09,0,0,1-2.19,0h0V16.65h0a1.09,1.09,0,0,1,2.19,0h0V28.07ZM92.33,10.95a1.46,1.46,0,1,0,1.46,1.46A1.46,1.46,0,0,0,92.33,10.95ZM87.59,28.07h0a1.09,1.09,0,0,1-2.19,0h0V20.66a2.91,2.91,0,0,0-5.83,0v7.41a1.09,1.09,0,0,1-2.19,0h0V20.66h0a5.1,5.1,0,0,1,10.2,0ZM73.75,22.36h0V16.66h0a1.09,1.09,0,0,0-2.19,0h0v.71a6.8,6.8,0,1,0,0,10v1.81h0A4.61,4.61,0,0,1,67,33.78h0a4.61,4.61,0,0,1-4-2.31,1.09,1.09,0,1,0-1.89,1.09A6.8,6.8,0,0,0,67,36h0a6.8,6.8,0,0,0,6.8-6.8v-6.8Zm-2.19,0A4.61,4.61,0,1,1,67,17.75a4.61,4.61,0,0,1,4.61,4.61ZM57.24,28.07h0a1.09,1.09,0,1,1-2.19,0h0V16.65h0a1.09,1.09,0,0,1,2.19,0h0V28.07ZM56.14,10.95A1.46,1.46,0,1,0,57.6,12.4,1.46,1.46,0,0,0,56.14,10.95Z"/></g><g id="Logomark"><path class="cls-1" d="M36,10h0a5.2,5.2,0,0,0-6.91-4.91A11.6,11.6,0,0,0,8,10a13.6,13.6,0,0,0,5.6,26H30.4A13.6,13.6,0,0,0,36,10ZM30.72,34.8h-.64a18.79,18.79,0,0,1-17-11.54,5.2,5.2,0,0,0,5-1.36h0A10.39,10.39,0,0,1,9.09,11.6q0-.39,0-.76a10.34,10.34,0,0,1,1-3.67A3.6,3.6,0,0,0,13.6,10h12a5.18,5.18,0,0,1,.51-2.26A5.22,5.22,0,0,0,30.4,10a12.4,12.4,0,0,1,.32,24.8ZM30.4,11.2A11.2,11.2,0,1,0,41.6,22.4,11.2,11.2,0,0,0,30.4,11.2Zm3.2,15.2a.8.8,0,0,1-.8.8H28a.8.8,0,0,1-.8-.8V23.2a.8.8,0,0,1,.8-.8V20a2.4,2.4,0,0,1,4.8,0v2.4a.8.8,0,0,1,.8.8Zm-2-6.4v2.4H29.2V20a1.2,1.2,0,0,1,2.4,0Z"/></g></g></svg>