<svg xmlns="http://www.w3.org/2000/svg" viewBox="0 0 200 200"><defs><style>.cls-1{opacity:0.25;}.cls-2{fill:#ffa227;}</style></defs><title>privacy_2</title><g id="Security" class="cls-1"><g id="User"><path class="cls-2" d="M62.34,71.32C66.38,93.6,81.16,108,100,108s33.33-14,37.67-36.63c.42-2.16,4.09-21.25,4.29-25.63a38.59,38.59,0,0,0-10.85-28.6,43.44,43.44,0,0,0-62.52.27A37.89,37.89,0,0,0,58.06,45.79C58.31,50.14,61.93,69.2,62.34,71.32ZM74.42,22.91a35.44,35.44,0,0,1,50.92-.24A30.65,30.65,0,0,1,134,45.39c-.13,2.88-2.55,16.21-4.15,24.47C127,84.43,117.72,100,100,100,82,100,72.73,83.78,70.2,69.86c-1.58-8.27-4-21.63-4.15-24.52A30,30,0,0,1,74.42,22.91Z"/><path class="cls-2" d="M191.52,158.49c-1.92-11.2-11.37-19.75-25.46-22.93L100,123.94,33.79,135.65c-13.66,2.86-23.36,11.63-25.33,23L4,196H196ZM12.57,188l3.79-28.1c1.65-9.51,10.93-14.72,18.94-16.4L100,132.06l64.48,11.34c5.11,1.15,17.2,5.06,19.13,16.3l3.81,28.3Z"/></g></g></svg>