<svg xmlns="http://www.w3.org/2000/svg" viewBox="0 0 200 200"><defs><style>.cls-1{opacity:0.25;}.cls-2{fill:#ffa227;}</style></defs><title>security_2</title><g id="Security" class="cls-1"><g id="Dashboard"><path class="cls-2" d="M100,4a96,96,0,1,0,96,96A96.11,96.11,0,0,0,100,4Zm0,183.65A87.65,87.65,0,1,1,187.65,100,87.75,87.75,0,0,1,100,187.65Z"/><path class="cls-2" d="M141.3,52.8,108.43,85.67A16.5,16.5,0,0,0,100,83.3,16.71,16.71,0,0,0,83.3,100a16.51,16.51,0,0,0,1.62,7.06l-21.3,21.3,5.9,5.9,20.75-20.75a16.61,16.61,0,0,0,24.06-21.94L147.2,58.7ZM100,108.35a8.35,8.35,0,1,1,8.35-8.35A8.36,8.36,0,0,1,100,108.35Z"/></g></g></svg>