<svg xmlns="http://www.w3.org/2000/svg" viewBox="0 0 200 200"><defs><style>.cls-1{opacity:0.25;}.cls-2{fill:#ffa227;}</style></defs><title>security_1</title><g id="Security" class="cls-1"><g id="Lock"><path class="cls-2" d="M144,76V48a44,44,0,0,0-88,0V76H28v84a36,36,0,0,0,36,36h72a36,36,0,0,0,36-36V76ZM64,48a36,36,0,0,1,72,0V76H64ZM164,160a28,28,0,0,1-28,28H64a28,28,0,0,1-28-28V84H164Z"/><path class="cls-2" d="M94.76,151.89a5.4,5.4,0,0,0,10.49,0l6.45-21.52a11.95,11.95,0,1,0-23.39,0Z"/></g></g></svg>