<svg xmlns="http://www.w3.org/2000/svg" viewBox="0 0 200 200"><defs><style>.cls-1{opacity:0.25;}.cls-2{fill:#ffa227;}</style></defs><title>security_3</title><g id="Security" class="cls-1"><g id="Compose"><polygon class="cls-2" points="172 88 172 188 28 188 28 36 108 36 108 28 20 28 20 196 180 196 180 88 172 88"/><path class="cls-2" d="M78.33,166.61l37.88-28.94,46.13-79.89L130.58,39.44,84.46,119.33Zm13.85-44.67,41.33-71.58,17.9,10.34-41.32,71.58L88.73,148.6Z"/><path class="cls-2" d="M177.55,31.51a18.34,18.34,0,1,0-31.76-18.34l-10.6,18.36,31.76,18.34Zm-31.43-2.9,6.6-11.43a10.34,10.34,0,1,1,17.9,10.34L164,38.95Z"/></g></g></svg>